<svg width="94" height="77" viewBox="0 0 94 77" fill="none" xmlns="http://www.w3.org/2000/svg">
<path d="M19.5186 58.6387L18.8754 58.768C18.5989 58.8251 18.3615 58.8251 18.1571 58.771C17.9167 58.771 17.7063 58.6718 17.541 58.5606C17.3757 58.4494 17.1983 58.2931 17.0601 58.0827C16.9308 57.9174 16.8286 57.6499 16.7836 57.4215L15.5122 53.358L13.8201 53.1836L14.7608 57.8302C14.854 58.2901 15.0193 58.6387 15.1876 58.9904C15.401 59.33 15.6024 59.6246 15.8428 59.862C16.0833 60.0995 16.3598 60.2858 16.6724 60.412C16.9489 60.5954 17.2524 60.6765 17.556 60.7607C17.8596 60.8418 18.1451 60.8328 18.4396 60.8689C18.7252 60.8599 19.0107 60.8478 19.2391 60.8028L20.2039 60.6074L19.5186 58.6387Z" fill="white"/>
<path d="M26.2301 58.6387L25.5869 58.768C25.3104 58.8251 25.0729 58.8251 24.8685 58.771C24.6281 58.771 24.4177 58.6718 24.2524 58.5606C24.0871 58.4494 23.9098 58.2931 23.7715 58.0827C23.6423 57.9174 23.5401 57.6499 23.495 57.4215L22.2236 53.358L20.5315 53.1836L21.4722 57.8302C21.5654 58.2901 21.7307 58.6387 21.899 58.9904C22.1124 59.33 22.3138 59.6246 22.5542 59.862C22.7947 60.0995 23.0712 60.2858 23.3838 60.412C23.6603 60.5954 23.9639 60.6765 24.2674 60.7607C24.571 60.8418 24.8565 60.8328 25.1511 60.8689C25.4366 60.8599 25.7221 60.8478 25.9505 60.8028L26.9153 60.6074L26.2301 58.6387Z" fill="white"/>
<path d="M32.9384 58.6387L32.2952 58.768C32.0187 58.8251 31.7813 58.8251 31.5769 58.771C31.3365 58.771 31.1261 58.6718 30.9608 58.5606C30.7955 58.4494 30.6181 58.2931 30.4799 58.0827C30.3506 57.9174 30.2484 57.6499 30.2034 57.4215L28.932 53.358L27.2399 53.1836L28.1806 57.8302C28.2738 58.2901 28.4391 58.6387 28.6074 58.9904C28.8208 59.33 29.0222 59.6246 29.2626 59.862C29.5031 60.0995 29.7796 60.2858 30.0922 60.412C30.3687 60.5954 30.6722 60.6765 30.9758 60.7607C31.2794 60.8418 31.5649 60.8328 31.8594 60.8689C32.145 60.8599 32.4305 60.8478 32.6589 60.8028L33.6237 60.6074L32.9384 58.6387Z" fill="white"/>
<path d="M39.6499 58.6387L39.0067 58.768C38.7302 58.8251 38.4928 58.8251 38.2884 58.771C38.048 58.771 37.8376 58.6718 37.6723 58.5606C37.5069 58.4494 37.3296 58.2931 37.1914 58.0827C37.0621 57.9174 36.9599 57.6499 36.9148 57.4215L35.6435 53.358L33.9514 53.1836L34.8921 57.8302C34.9853 58.2901 35.1506 58.6387 35.3189 58.9904C35.5323 59.33 35.7337 59.6246 35.9741 59.862C36.2145 60.0995 36.4911 60.2858 36.8036 60.412C37.0802 60.5954 37.3837 60.6765 37.6873 60.7607C37.9908 60.8418 38.2764 60.8328 38.5709 60.8689C38.8564 60.8599 39.142 60.8478 39.3704 60.8028L40.3352 60.6074L39.6499 58.6387Z" fill="white"/>
<path d="M46.3614 58.6387L45.7182 58.768C45.4417 58.8251 45.2043 58.8251 44.9999 58.771C44.7594 58.771 44.549 58.6718 44.3837 58.5606C44.2184 58.4494 44.0411 58.2931 43.9028 58.0827C43.7736 57.9174 43.6714 57.6499 43.6263 57.4215L42.355 53.358L40.6628 53.1836L41.6036 57.8302C41.6968 58.2901 41.8621 58.6387 42.0304 58.9904C42.2438 59.33 42.4451 59.6246 42.6856 59.862C42.926 60.0995 43.2026 60.2858 43.5151 60.412C43.7916 60.5954 44.0952 60.6765 44.3988 60.7607C44.7023 60.8418 44.9879 60.8328 45.2824 60.8689C45.5679 60.8599 45.8535 60.8478 46.0819 60.8028L47.0467 60.6074L46.3614 58.6387Z" fill="white"/>
<path d="M53.0698 58.6387L52.4266 58.768C52.1501 58.8251 51.9126 58.8251 51.7083 58.771C51.4678 58.771 51.2574 58.6718 51.0921 58.5606C50.9268 58.4494 50.7495 58.2931 50.6112 58.0827C50.482 57.9174 50.3798 57.6499 50.3347 57.4215L49.0634 53.358L47.3712 53.1836L48.312 57.8302C48.4051 58.2901 48.5704 58.6387 48.7388 58.9904C48.9521 59.33 49.1535 59.6246 49.394 59.862C49.6344 60.0995 49.9109 60.2858 50.2235 60.412C50.5 60.5954 50.8036 60.6765 51.1071 60.7607C51.4107 60.8418 51.6962 60.8328 51.9908 60.8689C52.2763 60.8599 52.5618 60.8478 52.7903 60.8028L53.7551 60.6074L53.0698 58.6387Z" fill="white"/>
<path d="M59.7812 58.6387L59.138 58.768C58.8615 58.8251 58.6241 58.8251 58.4197 58.771C58.1792 58.771 57.9688 58.6718 57.8035 58.5606C57.6382 58.4494 57.4609 58.2931 57.3226 58.0827C57.1934 57.9174 57.0912 57.6499 57.0461 57.4215L55.7748 53.358L54.0826 53.1836L55.0234 57.8302C55.1166 58.2901 55.2819 58.6387 55.4502 58.9904C55.6636 59.33 55.8649 59.6246 56.1054 59.862C56.3458 60.0995 56.6224 60.2858 56.9349 60.412C57.2114 60.5954 57.515 60.6765 57.8186 60.7607C58.1221 60.8418 58.4077 60.8328 58.7022 60.8689C58.9877 60.8599 59.2733 60.8478 59.5017 60.8028L60.4665 60.6074L59.7812 58.6387Z" fill="white"/>
<path d="M66.4927 58.6387L65.8495 58.768C65.573 58.8251 65.3355 58.8251 65.1312 58.771C64.8907 58.771 64.6803 58.6718 64.515 58.5606C64.3497 58.4494 64.1724 58.2931 64.0341 58.0827C63.9049 57.9174 63.8027 57.6499 63.7576 57.4215L62.4863 53.358L60.7941 53.1836L61.7349 57.8302C61.828 58.2901 61.9934 58.6387 62.1617 58.9904C62.3751 59.33 62.5764 59.6246 62.8169 59.862C63.0573 60.0995 63.3338 60.2858 63.6464 60.412C63.9229 60.5954 64.2265 60.6765 64.5301 60.7607C64.8336 60.8418 65.1191 60.8328 65.4137 60.8689C65.6992 60.8599 65.9847 60.8478 66.2132 60.8028L67.178 60.6074L66.4927 58.6387Z" fill="white"/>
<path d="M73.2013 58.6387L72.5581 58.768C72.2815 58.8251 72.0441 58.8251 71.8397 58.771C71.5993 58.771 71.3889 58.6718 71.2236 58.5606C71.0583 58.4494 70.8809 58.2931 70.7427 58.0827C70.6134 57.9174 70.5113 57.6499 70.4662 57.4215L69.1948 53.358L67.5027 53.1836L68.4434 57.8302C68.5366 58.2901 68.7019 58.6387 68.8702 58.9904C69.0836 59.33 69.285 59.6246 69.5254 59.862C69.7659 60.0995 70.0424 60.2858 70.355 60.412C70.6315 60.5954 70.9351 60.6765 71.2386 60.7607C71.5422 60.8418 71.8277 60.8328 72.1223 60.8689C72.4078 60.8599 72.6933 60.8478 72.9217 60.8028L73.8865 60.6074L73.2013 58.6387Z" fill="white"/>
<path d="M79.9125 58.6387L79.2694 58.768C78.9928 58.8251 78.7554 58.8251 78.551 58.771C78.3106 58.771 78.1002 58.6718 77.9349 58.5606C77.7696 58.4494 77.5923 58.2931 77.454 58.0827C77.3248 57.9174 77.2226 57.6499 77.1775 57.4215L75.9061 53.358L74.214 53.1836L75.1547 57.8302C75.2479 58.2901 75.4132 58.6387 75.5815 58.9904C75.7949 59.33 75.9963 59.6246 76.2367 59.862C76.4772 60.0995 76.7537 60.2858 77.0663 60.412C77.3428 60.5954 77.6463 60.6765 77.9499 60.7607C78.2535 60.8418 78.539 60.8328 78.8336 60.8689C79.1191 60.8599 79.4046 60.8478 79.633 60.8028L80.5978 60.6074L79.9125 58.6387Z" fill="white"/>
<path d="M19.3023 29.8965L18.6501 29.9837C18.3706 30.0198 18.1331 30.0047 17.9348 29.9386C17.6973 29.9236 17.4899 29.8094 17.3336 29.6891C17.1744 29.5689 17.0121 29.4006 16.8858 29.1812C16.7686 29.0069 16.6844 28.7334 16.6544 28.5019L15.6565 24.3633L13.9794 24.0777L14.6076 28.7754C14.6707 29.2413 14.812 29.599 14.9562 29.9596C15.1456 30.3143 15.3289 30.6209 15.5513 30.8733C15.7738 31.1288 16.0382 31.3302 16.3418 31.4775C16.6063 31.6788 16.9039 31.781 17.2014 31.8832C17.499 31.9854 17.7845 31.9944 18.076 32.0515C18.3616 32.0605 18.6471 32.0696 18.8785 32.0395L19.8553 31.9073L19.3023 29.8965Z" fill="white"/>
<path d="M25.9986 30.3415L25.3464 30.4287C25.0669 30.4647 24.8295 30.4497 24.6311 30.3836C24.3937 30.3685 24.1863 30.2543 24.03 30.1341C23.8707 30.0139 23.7084 29.8456 23.5822 29.6262C23.465 29.4518 23.3808 29.1783 23.3507 28.9469L22.3529 24.8082L20.6758 24.5227L21.3039 29.2204C21.3671 29.6863 21.5083 30.0439 21.6526 30.4046C21.8419 30.7593 22.0253 31.0658 22.2477 31.3183C22.4701 31.5738 22.7346 31.7751 23.0382 31.9224C23.3027 32.1238 23.6002 32.226 23.8978 32.3282C24.1953 32.4304 24.4808 32.4394 24.7724 32.4965C25.0579 32.5055 25.3434 32.5145 25.5749 32.4845L26.5517 32.3522L25.9986 30.3415Z" fill="white"/>
<path d="M32.6951 30.7894L32.0429 30.8766C31.7634 30.9126 31.526 30.8976 31.3276 30.8315C31.0901 30.8164 30.8828 30.7022 30.7265 30.582C30.5672 30.4618 30.4049 30.2935 30.2786 30.0741C30.1614 29.8997 30.0773 29.6262 30.0472 29.3948L29.0494 25.2561L27.3723 24.9706L28.0004 29.6683C28.0635 30.1342 28.2048 30.4918 28.3491 30.8525C28.5384 31.2072 28.7218 31.5137 28.9442 31.7662C29.1666 32.0217 29.4311 32.2231 29.7346 32.3703C29.9991 32.5717 30.2967 32.6739 30.5942 32.7761C30.8918 32.8783 31.1773 32.8873 31.4688 32.9444C31.7544 32.9534 32.0399 32.9624 32.2713 32.9324L33.2481 32.8001L32.6951 30.7894Z" fill="white"/>
<path d="M39.3885 31.2341L38.7363 31.3213C38.4568 31.3574 38.2194 31.3423 38.021 31.2762C37.7836 31.2612 37.5762 31.147 37.4199 31.0268C37.2606 30.9065 37.0983 30.7382 36.9721 30.5188C36.8548 30.3445 36.7707 30.071 36.7406 29.8395L35.7428 25.6979L34.0657 25.4123L34.6938 30.11C34.757 30.5759 34.8982 30.9336 35.0425 31.2942C35.2318 31.6489 35.4152 31.9555 35.6376 32.2079C35.86 32.4634 36.1245 32.6648 36.4281 32.8121C36.6925 33.0134 36.9901 33.1156 37.2876 33.2178C37.5852 33.32 37.8707 33.329 38.1623 33.3861C38.4478 33.3951 38.7333 33.4042 38.9648 33.3741L39.9416 33.2419L39.3885 31.2341Z" fill="white"/>
<path d="M46.0849 31.682L45.4327 31.7691C45.1532 31.8052 44.9157 31.7902 44.7174 31.724C44.4799 31.709 44.2725 31.5948 44.1162 31.4746C43.9569 31.3544 43.7946 31.186 43.6684 30.9666C43.5512 30.7923 43.467 30.5188 43.437 30.2874L42.4391 26.1487L40.762 25.8632L41.3902 30.5609C41.4533 31.0267 41.5946 31.3844 41.7388 31.7451C41.9282 32.0997 42.1115 32.4063 42.3339 32.6588C42.5563 32.9142 42.8208 33.1156 43.1244 33.2629C43.3889 33.4643 43.6864 33.5665 43.984 33.6686C44.2815 33.7708 44.5671 33.7798 44.8586 33.837C45.1441 33.846 45.4297 33.855 45.6611 33.8249L46.6379 33.6927L46.0849 31.682Z" fill="white"/>
<path d="M52.7812 32.1266L52.129 32.2138C51.8495 32.2499 51.6121 32.2348 51.4137 32.1687C51.1763 32.1537 50.9689 32.0395 50.8126 31.9193C50.6533 31.799 50.491 31.6307 50.3648 31.4113C50.2475 31.237 50.1634 30.9635 50.1333 30.732L49.1355 26.5934L47.4584 26.3078L48.0865 31.0056C48.1497 31.4714 48.2909 31.8291 48.4352 32.1898C48.6245 32.5444 48.8079 32.851 49.0303 33.1034C49.2527 33.3589 49.5172 33.5603 49.8208 33.7076C50.0852 33.9089 50.3828 34.0111 50.6803 34.1133C50.9779 34.2155 51.2634 34.2245 51.555 34.2816C51.8405 34.2906 52.126 34.2997 52.3575 34.2696L53.3343 34.1374L52.7812 32.1266Z" fill="white"/>
<path d="M59.4747 32.5716L58.8224 32.6588C58.5429 32.6948 58.3055 32.6798 58.1071 32.6137C57.8697 32.5986 57.6623 32.4844 57.506 32.3642C57.3467 32.244 57.1844 32.0757 57.0582 31.8563C56.941 31.6819 56.8568 31.4084 56.8268 31.177L55.8289 27.0383L54.1518 26.7528L54.78 31.4505C54.8431 31.9164 54.9843 32.274 55.1286 32.6347C55.318 32.9894 55.5013 33.2959 55.7237 33.5484C55.9461 33.8039 56.2106 34.0052 56.5142 34.1525C56.7787 34.3539 57.0762 34.4561 57.3738 34.5583C57.6713 34.6605 57.9568 34.6695 58.2484 34.7266C58.5339 34.7356 58.8194 34.7446 59.0509 34.7146L60.0277 34.5823L59.4747 32.5716Z" fill="white"/>
<path d="M66.1711 33.0195L65.5189 33.1067C65.2394 33.1427 65.002 33.1277 64.8036 33.0616C64.5662 33.0465 64.3588 32.9323 64.2025 32.8121C64.0432 32.6919 63.8809 32.5236 63.7547 32.3042C63.6374 32.1299 63.5533 31.8563 63.5232 31.6249L62.5254 27.4862L60.8483 27.2007L61.4764 31.8984C61.5395 32.3643 61.6808 32.722 61.8251 33.0826C62.0144 33.4373 62.1978 33.7438 62.4202 33.9963C62.6426 34.2518 62.9071 34.4532 63.2106 34.6004C63.4751 34.8018 63.7727 34.904 64.0702 35.0062C64.3678 35.1084 64.6533 35.1174 64.9449 35.1745C65.2304 35.1835 65.5159 35.1925 65.7473 35.1625L66.7242 35.0302L66.1711 33.0195Z" fill="white"/>
<path d="M72.8675 33.4642L72.2153 33.5513C71.9358 33.5874 71.6983 33.5724 71.4999 33.5062C71.2625 33.4912 71.0551 33.377 70.8988 33.2568C70.7395 33.1366 70.5772 32.9682 70.451 32.7488C70.3338 32.5745 70.2496 32.301 70.2196 32.0696L69.2217 27.9309L67.5446 27.6454L68.1728 32.3431C68.2359 32.8089 68.3772 33.1666 68.5214 33.5273C68.7108 33.8819 68.8941 34.1885 69.1165 34.441C69.3389 34.6965 69.6034 34.8978 69.907 35.0451C70.1715 35.2465 70.469 35.3487 70.7666 35.4509C71.0641 35.553 71.3497 35.5621 71.6412 35.6192C71.9267 35.6282 72.2123 35.6372 72.4437 35.6071L73.4205 35.4749L72.8675 33.4642Z" fill="white"/>
<path d="M79.5609 33.9121L78.9087 33.9992C78.6292 34.0353 78.3917 34.0203 78.1934 33.9541C77.9559 33.9391 77.7485 33.8249 77.5923 33.7047C77.433 33.5845 77.2707 33.4162 77.1444 33.1967C77.0272 33.0224 76.943 32.7489 76.913 32.5175L75.9152 28.3788L74.238 28.0933L74.8662 32.791C74.9293 33.2569 75.0706 33.6145 75.2148 33.9752C75.4042 34.3298 75.5875 34.6364 75.81 34.8889C76.0324 35.1443 76.2969 35.3457 76.6004 35.493C76.8649 35.6944 77.1625 35.7966 77.46 35.8988C77.7576 36.0009 78.0431 36.01 78.3346 36.0671C78.6202 36.0761 78.9057 36.0851 79.1371 36.055L80.1139 35.9228L79.5609 33.9121Z" fill="white"/>
<path d="M44.3026 38.3423L44.2545 32.0456L76.5103 31.7961C78.0401 31.7841 79.2003 31.3663 79.9877 30.5548C80.7752 29.7373 81.1659 28.5351 81.1539 26.9421L81.0367 11.7399L44.1012 12.0255L44.011 0.330799L86.8374 0.000183937C87.6489 -0.0058272 88.4063 0.135435 89.1127 0.432987C89.819 0.724527 90.4381 1.1423 90.9671 1.6803C91.4961 2.21228 91.9138 2.84045 92.2204 3.55878C92.524 4.27711 92.6803 5.04053 92.6863 5.84602L92.8486 26.9481C92.8606 28.5651 92.5871 30.3084 92.0341 32.1748C91.478 34.0353 90.5764 35.8116 89.3291 37.5037L93.0499 53.31C93.059 54.419 92.9387 55.5882 92.6953 56.8235C92.4518 58.0528 92.0611 59.2791 91.5321 60.4993C91.0001 61.7166 90.3119 62.8827 89.4673 64.0038C88.6197 65.1189 87.5918 66.0987 86.3836 66.9523C85.1753 67.7998 83.7778 68.4851 82.1938 69.0051C80.6069 69.525 78.8095 69.7955 76.8018 69.8136L44.546 70.063L44.4559 58.3684L76.7117 58.1189C78.2415 58.1069 79.4017 57.7192 80.1891 56.9467C80.9796 56.1743 81.3673 54.9931 81.3553 53.4032L81.2741 42.8746C79.8344 43.2744 78.2776 43.4848 76.6005 43.4968L44.3026 38.3423Z" fill="white"/>
<path d="M48.7508 32.0125L48.7989 38.3092L16.5431 38.5587C15.0133 38.5707 13.8531 38.9885 13.0657 39.8C12.2782 40.6175 11.8875 41.8197 11.8995 43.4127L12.0167 58.6148L48.9522 58.3293L49.0424 70.024L6.21599 70.3546C5.40449 70.3606 4.64709 70.2194 3.94078 69.9218C3.23447 69.6303 2.61532 69.2125 2.08634 68.6745C1.55736 68.1425 1.13958 67.5143 0.833015 66.796C0.529453 66.0777 0.373163 65.3143 0.367151 64.5088L0.204851 43.4067C0.192829 41.7897 0.466335 40.0464 1.01936 38.18C1.57539 36.3195 2.47706 34.5432 3.72437 32.8511L0.1237 32.8782L0.00047206 17.0448C-0.00854465 15.9357 0.111678 14.7666 0.35513 13.5313C0.598581 12.302 0.989305 11.0757 1.51829 9.85547C2.05027 8.63822 2.73855 7.47206 3.58311 6.35098C4.43068 5.23591 5.45859 4.2561 6.66683 3.40252C7.87507 2.55494 9.27266 1.86967 10.8566 1.34971C12.4435 0.829746 14.2409 0.559244 16.2486 0.541211L48.5044 0.291748L48.5945 11.9864L16.3388 12.2359C14.8089 12.2479 13.6488 12.6356 12.8613 13.4081C12.0708 14.1805 11.6831 15.3617 11.6951 16.9516L11.7763 27.4801C13.216 27.0804 14.7729 26.87 16.45 26.858L48.7508 32.0125Z" fill="white"/>
<path d="M20.9102 76.1252C24.7148 76.1252 27.799 73.041 27.799 69.2365C27.799 65.4319 24.7148 62.3477 20.9102 62.3477C17.1056 62.3477 14.0214 65.4319 14.0214 69.2365C14.0214 73.041 17.1056 76.1252 20.9102 76.1252Z" fill="white"/>
<path d="M68.5306 76.1252C72.3351 76.1252 75.4193 73.041 75.4193 69.2365C75.4193 65.4319 72.3351 62.3477 68.5306 62.3477C64.726 62.3477 61.6418 65.4319 61.6418 69.2365C61.6418 73.041 64.726 76.1252 68.5306 76.1252Z" fill="white"/>
</svg>
